<?xml version="1.0" encoding="UTF-8" standalone="no"?>
<!-- Created with Inkscape (http://www.inkscape.org/) -->

<svg
   xmlns:dc="http://purl.org/dc/elements/1.1/"
   xmlns:cc="http://creativecommons.org/ns#"
   xmlns:rdf="http://www.w3.org/1999/02/22-rdf-syntax-ns#"
   xmlns:svg="http://www.w3.org/2000/svg"
   xmlns="http://www.w3.org/2000/svg"
   xmlns:xlink="http://www.w3.org/1999/xlink"
   xmlns:sodipodi="http://sodipodi.sourceforge.net/DTD/sodipodi-0.dtd"
   xmlns:inkscape="http://www.inkscape.org/namespaces/inkscape"
   width="512"
   height="512"
   id="svg2"
   version="1.1"
   inkscape:version="0.48.2 r9819"
   sodipodi:docname="lockscreen.svg"
   inkscape:export-filename="/home/hbush/workspace/WakeMeAt/noneclipse/icon.png"
   inkscape:export-xdpi="780.64703"
   inkscape:export-ydpi="780.64703">
  <defs
     id="defs4">
    <linearGradient
       id="linearGradient3945">
      <stop
         style="stop-color:#828282;stop-opacity:1;"
         offset="0"
         id="stop3947" />
      <stop
         style="stop-color:#919191;stop-opacity:1;"
         offset="1"
         id="stop3949" />
    </linearGradient>
    <linearGradient
       id="linearGradient3975">
      <stop
         style="stop-color:#ffff00;stop-opacity:1;"
         offset="0"
         id="stop3977" />
      <stop
         style="stop-color:#b8b800;stop-opacity:1;"
         offset="1"
         id="stop3979" />
    </linearGradient>
    <inkscape:path-effect
       fuse_tolerance="0"
       vertical_pattern="false"
       prop_units="false"
       tang_offset="0"
       normal_offset="0"
       spacing="0"
       scale_y_rel="false"
       prop_scale="0.269"
       copytype="single_stretched"
       pattern="m 178.06046,5.57088 0.10775,0 0,0.10776 -0.10775,0 z m -0.21552,-0.006 0.11973,0 0,0.11973 -0.11973,0 z m -0.23944,-0.007 0.13303,0 0,0.13303 -0.13303,0 z m -0.26605,-0.007 0.14781,0 0,0.14781 -0.14781,0 z m -0.29562,-0.008 0.16423,0 0,0.16423 -0.16423,0 z m -0.32846,-0.009 0.18248,0 0,0.18248 -0.18248,0 z m -0.36496,-0.0101 0.20275,0 0,0.20275 -0.20275,0 z m -0.40552,-0.0113 0.22528,0 0,0.22528 -0.22528,0 z m -0.45056,-0.0125 0.25031,0 0,0.25031 -0.25031,0 z m -0.50064,-0.0139 0.27812,0 0,0.27813 -0.27812,0 z m -0.55625,-0.0154 0.30903,0 0,0.30903 -0.30903,0 z m -0.61807,-0.0172 0.34337,0 0,0.34336 -0.34337,0 z m -0.68674,-0.0191 0.38152,0 0,0.38152 -0.38152,0 z m -0.76303,-0.0212 0.42391,0 0,0.42391 -0.42391,0 z m -0.84784,-0.0235 0.47101,0 0,0.47102 -0.47101,0 z m -0.94201,-0.0262 0.52334,0 0,0.52335 -0.52334,0 z m -1.0467,-0.0291 0.5815,0 0,0.58149 -0.5815,0 z m -1.16299,-0.0323 0.64611,0 0,0.64611 -0.64611,0 z m -1.29224,-0.0359 0.7179,0 0,0.7179 -0.7179,0 z m -1.43579,-0.0399 0.79767,0 0,0.79767 -0.79767,0 z m -1.59534,-0.0443 0.8863,0 0,0.8863 -0.8863,0 z m -1.77258,-0.0493 0.98477,0 0,0.98477 -0.98477,0 z m -1.96954,-0.0547 1.09419,0 0,1.09419 -1.09419,0 z m -2.18839,-0.0608 1.21577,0 0,1.21576 -1.21577,0 z m -2.43152,-0.0675 1.35086,0 0,1.35085 -1.35086,0 z m -2.70169,-0.0751 1.50095,0 0,1.50095 -1.50095,0 z m -3.00189,-0.0834 1.66772,0 0,1.66771 -1.66772,0 z m -3.33545,-0.0927 1.85302,0 0,1.85302 -1.85302,0 z m -3.70605,-0.10293 2.05891,0 0,2.05891 -2.05891,0 z m -4.1178,-0.11438 2.28768,0 0,2.28768 -2.28768,0 z m -4.57538,-0.12711 2.54187,0 0,2.54187 -2.54187,0 z m -5.08371,-0.1412 2.8243,0 0,2.82429 -2.8243,0 z m -5.64859,-0.15692 3.13811,0 0,3.1381 -3.13811,0 z m -6.27621,-0.17435 3.48678,0 0,3.48678 -3.48678,0 z m -6.97357,-0.1937 3.8742,0 0,3.87421 -3.8742,0 z m -7.74842,-0.21524 4.30467,0 0,4.30468 -4.30467,0 z m -8.60934,-0.23913 4.78297,0 0,4.78297 -4.78297,0 z m -9.56594,-0.26572 5.31442,0 0,5.31441 -5.31442,0 z M 73.7118,2.67254 l 5.9049,0 0,5.9049 -5.9049,0 z M 61.902,2.34448 l 6.561,0 0,6.561 -6.561,0 z M 48.78,1.98001 l 7.29,0 0,7.29 -7.29,0 z M 34.2,1.57498 l 8.1,0 0,8.1 -8.1,0 z M 18,1.125 l 9,0 0,9 -9,0 z m -18,-0.5 10,0 0,10 -10,0 z"
       is_visible="true"
       id="path-effect3816"
       effect="skeletal" />
    <inkscape:path-effect
       fuse_tolerance="0"
       vertical_pattern="false"
       prop_units="false"
       tang_offset="0"
       normal_offset="0"
       spacing="0"
       scale_y_rel="false"
       prop_scale="0.269"
       copytype="single_stretched"
       pattern="m 178.06046,4.32088 0.10775,0 0,0.10776 -0.10775,0 z m -0.21552,-0.006 0.11973,0 0,0.11973 -0.11973,0 z m -0.23944,-0.007 0.13303,0 0,0.13303 -0.13303,0 z m -0.26605,-0.007 0.14781,0 0,0.14781 -0.14781,0 z m -0.29562,-0.008 0.16423,0 0,0.16423 -0.16423,0 z m -0.32846,-0.009 0.18248,0 0,0.18248 -0.18248,0 z m -0.36496,-0.0101 0.20275,0 0,0.20275 -0.20275,0 z m -0.40552,-0.0113 0.22528,0 0,0.22528 -0.22528,0 z m -0.45056,-0.0125 0.25031,0 0,0.25031 -0.25031,0 z m -0.50064,-0.0139 0.27812,0 0,0.27813 -0.27812,0 z m -0.55625,-0.0154 0.30903,0 0,0.30903 -0.30903,0 z m -0.61807,-0.0172 0.34337,0 0,0.34336 -0.34337,0 z m -0.68674,-0.0191 0.38152,0 0,0.38152 -0.38152,0 z m -0.76303,-0.0212 0.42391,0 0,0.42391 -0.42391,0 z m -0.84784,-0.0235 0.47101,0 0,0.47102 -0.47101,0 z m -0.94201,-0.0262 0.52334,0 0,0.52335 -0.52334,0 z m -1.0467,-0.0291 0.5815,0 0,0.58149 -0.5815,0 z m -1.16299,-0.0323 0.64611,0 0,0.64611 -0.64611,0 z m -1.29224,-0.0359 0.7179,0 0,0.7179 -0.7179,0 z m -1.43579,-0.0399 0.79767,0 0,0.79767 -0.79767,0 z m -1.59534,-0.0443 0.8863,0 0,0.8863 -0.8863,0 z m -1.77258,-0.0493 0.98477,0 0,0.98477 -0.98477,0 z m -1.96954,-0.0547 1.09419,0 0,1.09419 -1.09419,0 z m -2.18839,-0.0608 1.21577,0 0,1.21576 -1.21577,0 z m -2.43152,-0.0675 1.35086,0 0,1.35085 -1.35086,0 z m -2.70169,-0.0751 1.50095,0 0,1.50095 -1.50095,0 z m -3.00189,-0.0834 1.66772,0 0,1.66771 -1.66772,0 z m -3.33545,-0.0927 1.85302,0 0,1.85302 -1.85302,0 z m -3.70605,-0.10293 2.05891,0 0,2.05891 -2.05891,0 z m -4.1178,-0.11438 2.28768,0 0,2.28768 -2.28768,0 z m -4.57538,-0.12711 2.54187,0 0,2.54187 -2.54187,0 z m -5.08371,-0.1412 2.8243,0 0,2.82429 -2.8243,0 z m -5.64859,-0.15692 3.13811,0 0,3.1381 -3.13811,0 z m -6.27621,-0.17435 3.48678,0 0,3.48678 -3.48678,0 z m -6.97357,-0.1937 3.8742,0 0,3.87421 -3.8742,0 z m -7.74842,-0.21524 4.30467,0 0,4.30468 -4.30467,0 z m -8.60934,-0.23913 4.78297,0 0,4.78297 -4.78297,0 z m -9.56594,-0.26572 5.31442,0 0,5.31441 -5.31442,0 z M 73.7118,1.42254 l 5.9049,0 0,5.9049 -5.9049,0 z M 61.902,1.09448 l 6.561,0 0,6.561 -6.561,0 z M 48.78,0.73001 l 7.29,0 0,7.29 -7.29,0 z M 34.2,0.32498 l 8.1,0 0,8.1 -8.1,0 z M 18,-0.125 l 9,0 0,9 -9,0 z m -18,-0.5 10,0 0,10 -10,0 z"
       is_visible="true"
       id="path-effect3810"
       effect="skeletal" />
    <linearGradient
       id="linearGradient3930">
      <stop
         style="stop-color:#ffffff;stop-opacity:0;"
         offset="0"
         id="stop3932" />
      <stop
         style="stop-color:#ffffff;stop-opacity:1;"
         offset="1"
         id="stop3934" />
    </linearGradient>
    <linearGradient
       inkscape:collect="always"
       id="linearGradient3920">
      <stop
         style="stop-color:#ffffff;stop-opacity:1;"
         offset="0"
         id="stop3922" />
      <stop
         style="stop-color:#ffffff;stop-opacity:0;"
         offset="1"
         id="stop3924" />
    </linearGradient>
    <linearGradient
       id="linearGradient3860">
      <stop
         style="stop-color:#008000;stop-opacity:1;"
         offset="0"
         id="stop3862" />
      <stop
         style="stop-color:#ffffff;stop-opacity:1;"
         offset="1"
         id="stop3864" />
    </linearGradient>
    <inkscape:path-effect
       effect="skeletal"
       id="path-effect5616"
       is_visible="true"
       pattern="m 178.06046,4.94588 0.10775,0 0,0.10776 -0.10775,0 z m -0.21552,-0.006 0.11973,0 0,0.11973 -0.11973,0 z m -0.23944,-0.007 0.13303,0 0,0.13303 -0.13303,0 z m -0.26605,-0.007 0.14781,0 0,0.14781 -0.14781,0 z m -0.29562,-0.008 0.16423,0 0,0.16423 -0.16423,0 z m -0.32846,-0.009 0.18248,0 0,0.18248 -0.18248,0 z m -0.36496,-0.0101 0.20275,0 0,0.20275 -0.20275,0 z m -0.40552,-0.0113 0.22528,0 0,0.22528 -0.22528,0 z m -0.45056,-0.0125 0.25031,0 0,0.25031 -0.25031,0 z m -0.50064,-0.0139 0.27812,0 0,0.27813 -0.27812,0 z m -0.55625,-0.0154 0.30903,0 0,0.30903 -0.30903,0 z m -0.61807,-0.0172 0.34337,0 0,0.34336 -0.34337,0 z m -0.68674,-0.0191 0.38152,0 0,0.38152 -0.38152,0 z m -0.76303,-0.0212 0.42391,0 0,0.42391 -0.42391,0 z m -0.84784,-0.0235 0.47101,0 0,0.47102 -0.47101,0 z m -0.94201,-0.0262 0.52334,0 0,0.52335 -0.52334,0 z m -1.0467,-0.0291 0.5815,0 0,0.58149 -0.5815,0 z m -1.16299,-0.0323 0.64611,0 0,0.64611 -0.64611,0 z m -1.29224,-0.0359 0.7179,0 0,0.7179 -0.7179,0 z m -1.43579,-0.0399 0.79767,0 0,0.79767 -0.79767,0 z m -1.59534,-0.0443 0.8863,0 0,0.8863 -0.8863,0 z m -1.77258,-0.0493 0.98477,0 0,0.98477 -0.98477,0 z m -1.96954,-0.0547 1.09419,0 0,1.09419 -1.09419,0 z m -2.18839,-0.0608 1.21577,0 0,1.21576 -1.21577,0 z m -2.43152,-0.0675 1.35086,0 0,1.35085 -1.35086,0 z m -2.70169,-0.0751 1.50095,0 0,1.50095 -1.50095,0 z m -3.00189,-0.0834 1.66772,0 0,1.66771 -1.66772,0 z m -3.33545,-0.0927 1.85302,0 0,1.85302 -1.85302,0 z m -3.70605,-0.10293 2.05891,0 0,2.05891 -2.05891,0 z m -4.1178,-0.11438 2.28768,0 0,2.28768 -2.28768,0 z m -4.57538,-0.12711 2.54187,0 0,2.54187 -2.54187,0 z m -5.08371,-0.1412 2.8243,0 0,2.82429 -2.8243,0 z m -5.64859,-0.15692 3.13811,0 0,3.1381 -3.13811,0 z m -6.27621,-0.17435 3.48678,0 0,3.48678 -3.48678,0 z m -6.97357,-0.1937 3.8742,0 0,3.87421 -3.8742,0 z m -7.74842,-0.21524 4.30467,0 0,4.30468 -4.30467,0 z m -8.60934,-0.23913 4.78297,0 0,4.78297 -4.78297,0 z m -9.56594,-0.26572 5.31442,0 0,5.31441 -5.31442,0 z M 73.7118,2.04754 l 5.9049,0 0,5.9049 -5.9049,0 z M 61.902,1.71948 l 6.561,0 0,6.561 -6.561,0 z M 48.78,1.35501 l 7.29,0 0,7.29 -7.29,0 z M 34.2,0.94998 l 8.1,0 0,8.1 -8.1,0 z M 18,0.5 l 9,0 0,9 -9,0 z M 0,0 10,0 10,10 0,10 z"
       copytype="single_stretched"
       prop_scale="0.269"
       scale_y_rel="false"
       spacing="0"
       normal_offset="0"
       tang_offset="0"
       prop_units="false"
       vertical_pattern="false"
       fuse_tolerance="0" />
    <inkscape:path-effect
       effect="skeletal"
       id="path-effect5464"
       is_visible="true"
       pattern="M 0,0 1,0"
       copytype="single_stretched"
       prop_scale="1"
       scale_y_rel="false"
       spacing="0"
       normal_offset="0"
       tang_offset="0"
       prop_units="false"
       vertical_pattern="false"
       fuse_tolerance="0" />
    <inkscape:perspective
       sodipodi:type="inkscape:persp3d"
       inkscape:vp_x="0 : 526.18109 : 1"
       inkscape:vp_y="0 : 1000 : 0"
       inkscape:vp_z="744.09448 : 526.18109 : 1"
       inkscape:persp3d-origin="372.04724 : 350.78739 : 1"
       id="perspective10" />
    <filter
       id="filter3896"
       inkscape:label="Drop shadow"
       width="1.5"
       height="1.5"
       x="-0.25"
       y="-0.25"
       color-interpolation-filters="sRGB">
      <feGaussianBlur
         id="feGaussianBlur3898"
         in="SourceAlpha"
         stdDeviation="2"
         result="blur" />
      <feColorMatrix
         id="feColorMatrix3900"
         result="bluralpha"
         type="matrix"
         values="1 0 0 0 0 0 1 0 0 0 0 0 1 0 0 0 0 0 0.5 0 " />
      <feOffset
         id="feOffset3902"
         in="bluralpha"
         dx="0"
         dy="4"
         result="offsetBlur" />
      <feMerge
         id="feMerge3904">
        <feMergeNode
           id="feMergeNode3906"
           in="offsetBlur" />
        <feMergeNode
           id="feMergeNode3908"
           in="SourceGraphic" />
      </feMerge>
    </filter>
    <linearGradient
       inkscape:collect="always"
       xlink:href="#linearGradient3920"
       id="linearGradient3926"
       x1="209.5"
       y1="364.86218"
       x2="209.375"
       y2="372.36218"
       gradientUnits="userSpaceOnUse" />
    <radialGradient
       inkscape:collect="always"
       xlink:href="#linearGradient3930"
       id="radialGradient3936"
       cx="209.29916"
       cy="386.53009"
       fx="209.29916"
       fy="386.53009"
       r="25.29917"
       gradientTransform="matrix(0.63437512,-0.64231357,0.64562348,0.63764412,-173.02792,274.49715)"
       gradientUnits="userSpaceOnUse" />
    <filter
       inkscape:collect="always"
       id="filter4030"
       x="-0.081339531"
       width="1.1626791"
       y="-0.11710715"
       height="1.2342143"
       color-interpolation-filters="sRGB">
      <feGaussianBlur
         inkscape:collect="always"
         stdDeviation="1.713912"
         id="feGaussianBlur4032" />
    </filter>
    <radialGradient
       inkscape:collect="always"
       xlink:href="#linearGradient3975"
       id="radialGradient3981"
       cx="219.75302"
       cy="394.67294"
       fx="219.75302"
       fy="394.67294"
       r="8.802165"
       gradientTransform="matrix(1,0,0,0.96390615,0,14.245266)"
       gradientUnits="userSpaceOnUse" />
    <filter
       inkscape:collect="always"
       id="filter3965"
       x="-0.070203023"
       width="1.140406"
       y="-0.15176965"
       height="1.3035393">
      <feGaussianBlur
         inkscape:collect="always"
         stdDeviation="1.5520311"
         id="feGaussianBlur3967" />
    </filter>
    <clipPath
       clipPathUnits="userSpaceOnUse"
       id="clipPath3974">
      <path
         sodipodi:nodetypes="zzzczz"
         inkscape:connector-curvature="0"
         id="path3976"
         d="m 3.0037273,573.46533 c 0,-15.69623 14.7018897,-23.32481 25.0000007,-23.375 10.298109,-0.0502 22.442349,-0.2939 24.375,1.5 1.932649,1.7939 0.99573,18.28456 0.999999,23.25 0,10.73549 -10.464359,21.12825 -24.999999,21.125 -14.535641,-0.003 -25.3750007,-6.80377 -25.3750007,-22.5 z"
         style="fill:#ffaaaa;stroke:#000000;stroke-width:0.10830735;stroke-opacity:1;display:inline" />
    </clipPath>
    <clipPath
       clipPathUnits="userSpaceOnUse"
       id="clipPath3172">
      <path
         transform="translate(232.15543,228.28506)"
         inkscape:transform-center-y="-5.1253307"
         inkscape:transform-center-x="0.7727449"
         d="m 225.57307,402.65471 -5.51712,-2.6196 -5.2857,3.05978 0.7865,-6.05659 -4.5434,-4.08147 6.00321,-1.12359 2.47773,-5.58227 2.92368,5.36218 6.07471,0.63144 -4.19626,4.4376 z"
         inkscape:randomized="0"
         inkscape:rounded="0"
         inkscape:flatsided="false"
         sodipodi:arg2="1.5300719"
         sodipodi:arg1="0.90175333"
         sodipodi:r2="4.5985265"
         sodipodi:r1="9.197053"
         sodipodi:cy="395.4404"
         sodipodi:cx="219.86873"
         sodipodi:sides="5"
         id="path3174"
         style="fill:#cccccc;fill-opacity:1;stroke:#6e6e00;stroke-width:0.2;stroke-linejoin:round;stroke-miterlimit:4;stroke-opacity:0.51674643;stroke-dasharray:none;display:inline"
         sodipodi:type="star" />
    </clipPath>
    <linearGradient
       inkscape:collect="always"
       xlink:href="#linearGradient3945"
       id="linearGradient3951"
       x1="259.62485"
       y1="588.6319"
       x2="259.62485"
       y2="1010.3669"
       gradientUnits="userSpaceOnUse" />
    <filter
       inkscape:collect="always"
       id="filter3944"
       x="-0.25368741"
       width="1.5073748"
       y="-0.22771396"
       height="1.4554279">
      <feGaussianBlur
         inkscape:collect="always"
         stdDeviation="10.570311"
         id="feGaussianBlur3946" />
    </filter>
    <filter
       inkscape:collect="always"
       id="filter3956"
       x="-0.26152485"
       width="1.5230497"
       y="-0.22174892"
       height="1.4434978">
      <feGaussianBlur
         inkscape:collect="always"
         stdDeviation="10.896871"
         id="feGaussianBlur3958" />
    </filter>
    <filter
       inkscape:collect="always"
       id="filter4013"
       x="-0.22644489"
       width="1.4528898"
       y="-0.25528127"
       height="1.5105625">
      <feGaussianBlur
         inkscape:collect="always"
         stdDeviation="14.356252"
         id="feGaussianBlur4015" />
    </filter>
    <filter
       inkscape:collect="always"
       id="filter4072"
       x="-0.12434755"
       width="1.2486951"
       y="-0.17103043"
       height="1.3420609">
      <feGaussianBlur
         inkscape:collect="always"
         stdDeviation="7.8834375"
         id="feGaussianBlur4074" />
    </filter>
    <filter
       inkscape:collect="always"
       id="filter4076"
       x="-0.17836601"
       width="1.356732"
       y="-0.12073738"
       height="1.2414748">
      <feGaussianBlur
         inkscape:collect="always"
         stdDeviation="11.308126"
         id="feGaussianBlur4078" />
    </filter>
  </defs>
  <sodipodi:namedview
     id="base"
     pagecolor="#ffffff"
     bordercolor="#666666"
     borderopacity="1.0"
     inkscape:pageopacity="0.0"
     inkscape:pageshadow="2"
     inkscape:zoom="1.4900936"
     inkscape:cx="52.472605"
     inkscape:cy="259.96444"
     inkscape:document-units="px"
     inkscape:current-layer="g4017"
     showgrid="false"
     inkscape:snap-nodes="false"
     inkscape:window-width="1366"
     inkscape:window-height="744"
     inkscape:window-x="0"
     inkscape:window-y="24"
     inkscape:window-maximized="1"
     width="512px"
     borderlayer="false"
     inkscape:showpageshadow="false" />
  <metadata
     id="metadata7">
    <rdf:RDF>
      <cc:Work
         rdf:about="">
        <dc:format>image/svg+xml</dc:format>
        <dc:type
           rdf:resource="http://purl.org/dc/dcmitype/StillImage" />
        <dc:title />
      </cc:Work>
    </rdf:RDF>
  </metadata>
  <g
     inkscape:groupmode="layer"
     id="layer9"
     inkscape:label="TestBackground"
     style="display:none"
     sodipodi:insensitive="true">
    <rect
       style="opacity:0.7;fill:#999999;fill-opacity:1;stroke:#6e6e00;stroke-width:0.2;stroke-linejoin:round;stroke-miterlimit:4;stroke-opacity:0.51674643;stroke-dasharray:none;stroke-dashoffset:0"
       id="rect3168"
       width="567.54803"
       height="539.07574"
       x="-27.523233"
       y="-12.839576" />
    <path
       style="opacity:0.7;fill:#999999;fill-opacity:1;stroke:#6e6e00;stroke-width:0.2;stroke-linejoin:round;stroke-miterlimit:4;stroke-opacity:0.51674643;stroke-dasharray:none;stroke-dashoffset:0;display:inline"
       d="m -93.96875,-36.5625 0,280.9375 124.71875,0 C 41.956015,112.22254 169.92862,47.880296 260.78125,47.4375 355.86353,46.97401 467.96837,44.7182 485.8125,61.28125 500.66248,75.065112 497.19472,182.17592 495.625,244.375 l 101.34375,0 0,-280.9375 -690.9375,0 z"
       id="rect3170"
       inkscape:connector-curvature="0" />
  </g>
  <g
     inkscape:groupmode="layer"
     id="layer4"
     inkscape:label="Colour"
     style="display:inline"
     transform="translate(0,-540.3622)"
     sodipodi:insensitive="true">
    <path
       sodipodi:nodetypes="zzzczz"
       inkscape:connector-curvature="0"
       id="path3918"
       d="m 29.948221,803.62572 c 0,-144.92303 135.742309,-215.35759 230.824599,-215.821 95.08228,-0.46349 207.20985,-2.71357 225.05398,13.84948 17.84412,16.56305 9.19356,168.82104 9.23298,214.66687 0,99.12061 -96.61726,195.07673 -230.82459,195.04673 C 130.02785,1011.3403 29.948221,948.54876 29.948221,803.62572 z"
       style="fill:#000080;fill-opacity:1;stroke:none;display:inline" />
  </g>
  <g
     inkscape:label="Base"
     inkscape:groupmode="layer"
     id="layer1"
     style="display:inline"
     transform="translate(0,-540.3622)">
    <text
       xml:space="preserve"
       style="font-size:369.31933594px;font-style:normal;font-weight:normal;fill:#000000;fill-opacity:1;stroke:none;font-family:Bitstream Vera Sans"
       x="-626.91266"
       y="-478.93457"
       id="text3604"><tspan
         sodipodi:role="line"
         id="tspan3606"
         x="-626.91266"
         y="-478.93457" /></text>
  </g>
  <g
     inkscape:groupmode="layer"
     id="layer2"
     inkscape:label="Shading"
     style="display:inline"
     transform="translate(0,-540.3622)"
     sodipodi:insensitive="true">
    <path
       style="opacity:0.5;fill:#000000;fill-opacity:1;stroke:none;filter:url(#filter4030)"
       d="m 56.136028,564.13599 c -0.0485,4.19574 -0.18929,8.29574 -0.1875,10.375 0,10.73549 -10.46436,21.12825 -25,21.125 -13.94004,-0.003 -24.4721104,-6.26767 -25.3125004,-20.625 -0.0418,0.5761 -0.0625,1.15038 -0.0625,1.75 0,15.69623 10.8393604,22.497 25.3750004,22.5 14.53564,0.003 25,-10.38951 25,-21.125 -0.002,-2.68785 0.24268,-8.71713 0.1875,-14 z"
       id="path4023"
       inkscape:connector-curvature="0"
       transform="matrix(9.2329838,0,0,9.2329838,-21.512069,-4504.4575)" />
    <path
       style="fill:none;stroke:none"
       d="m 29.948221,803.62572 c 0,-144.92303 135.742309,-215.35759 230.824599,-215.821 95.08228,-0.46349 207.20985,-2.71357 225.05398,13.84948 17.84412,16.56305 9.19356,168.82104 9.23298,214.66687 0,99.12061 -96.61726,195.07673 -230.82459,195.04673 C 130.02785,1011.3403 29.948221,948.54876 29.948221,803.62572 z"
       id="path3960"
       inkscape:connector-curvature="0"
       sodipodi:nodetypes="zzzczz" />
    <path
       style="opacity:0.5;fill:#ffffff;stroke:none;filter:url(#filter3965)"
       d="m 38.448528,548.04224 c -2.61689,0.002 -5.30047,0.0187 -7.875,0.0312 -10.29811,0.0502 -27.4670087,6.0341 -27.4670087,21.73033 0,0.95882 0.0457,1.88834 0.125,2.78125 1.43674,-14.0413 17.5946587,-19.24532 27.3420087,-19.29283 10.29811,-0.0502 22.44235,-0.2939 24.375,1.5 0.85288,0.79165 1.1248,4.4876 1.1875,8.75 0.0979,-6.14322 0.006,-12.86064 -1.1875,-13.96875 -1.44949,-1.34543 -8.64932,-1.53688 -16.5,-1.53125 z"
       id="path3996"
       inkscape:connector-curvature="0"
       transform="matrix(9.2329838,0,0,9.2329838,2.2148557,-4491.1704)"
       clip-path="url(#clipPath3974)"
       sodipodi:nodetypes="ccscsscccc" />
  </g>
  <g
     inkscape:groupmode="layer"
     id="layer10"
     inkscape:label="BlurClip"
     style="display:inline"
     sodipodi:insensitive="true" />
  <g
     inkscape:groupmode="layer"
     id="layer3"
     inkscape:label="Lock"
     sodipodi:insensitive="true"
     style="display:none">
    <rect
       style="fill:#ffffff;fill-opacity:1;stroke:#ffffff;stroke-width:22.56263161;stroke-linejoin:round;stroke-miterlimit:4;stroke-opacity:1;stroke-dasharray:none"
       id="rect3457"
       width="129.57735"
       height="122.86636"
       x="198.95314"
       y="237.15742" />
    <path
       style="fill:none;stroke:#ffffff;stroke-width:18;stroke-linejoin:round;stroke-miterlimit:4;stroke-opacity:1;stroke-dasharray:none;stroke-dashoffset:0"
       d="m 223.34947,255.54147 -0.60986,-67.68219 c 0,-22.5937 18.31581,-40.90951 40.90951,-40.90951 22.5937,0 40.90951,18.31581 40.90951,40.90951 l 0.18539,68.06646"
       id="path4229"
       inkscape:connector-curvature="0"
       sodipodi:nodetypes="ccscc" />
  </g>
  <g
     style="display:inline"
     inkscape:label="Lock copy#1"
     id="g4017"
     inkscape:groupmode="layer">
    <path
       id="path4021"
       style="font-size:medium;font-style:normal;font-variant:normal;font-weight:normal;font-stretch:normal;text-indent:0;text-align:start;text-decoration:none;line-height:normal;letter-spacing:normal;word-spacing:normal;text-transform:none;direction:ltr;block-progression:tb;writing-mode:lr-tb;text-anchor:start;baseline-shift:baseline;color:#000000;fill:#ffffff;fill-opacity:1;stroke:none;stroke-width:18;marker:none;visibility:visible;display:inline;overflow:visible;enable-background:accumulate;font-family:Sans;-inkscape-font-specification:Sans"
       d="m 263.65625,137.9375 c -27.45766,0 -49.90625,22.44859 -49.90625,49.90625 a 9.0009,9.0009 0 0 0 0,0.0937 l 0.59375,67.6875 18,-0.15625 -0.59375,-67.625 0,-0.0625 c 0.034,-17.69988 14.19783,-31.84375 31.90625,-31.84375 17.72974,0 31.90625,14.17651 31.90625,31.90625 a 9.0009,9.0009 0 0 0 0,0.0312 l 0.1875,68.0625 18,-0.0312 -0.1875,-68.0625 c 0,-27.45766 -22.44859,-49.90625 -49.90625,-49.90625 z m -64.6875,87.9375 c -2.95854,-0.008 -5.902,1.20437 -7.99691,3.29348 -2.0949,2.08912 -3.31529,5.02922 -3.31559,7.98777 l 0,122.875 c 3e-4,2.95855 1.22069,5.89865 3.31559,7.98777 2.09491,2.08911 5.03837,3.30136 7.99691,3.29348 l 129.5625,0 c 2.95334,-3.1e-4 5.88837,-1.21623 7.9767,-3.30455 2.08832,-2.08833 3.30424,-5.02336 3.30455,-7.9767 l 0,-122.875 c -3.1e-4,-2.95334 -1.21623,-5.88837 -3.30455,-7.9767 -2.08833,-2.08832 -5.02336,-3.30424 -7.9767,-3.30455 z" />
    <path
       style="font-size:medium;font-style:normal;font-variant:normal;font-weight:normal;font-stretch:normal;text-indent:0;text-align:start;text-decoration:none;line-height:normal;letter-spacing:normal;word-spacing:normal;text-transform:none;direction:ltr;block-progression:tb;writing-mode:lr-tb;text-anchor:start;baseline-shift:baseline;color:#000000;fill:#000000;fill-opacity:1;stroke:none;stroke-width:18;marker:none;visibility:visible;display:inline;overflow:visible;enable-background:accumulate;font-family:Sans;-inkscape-font-specification:Sans;filter:url(#filter4072)"
       d="m 263.65625,133.91334 c -27.45766,0 -49.90625,22.44859 -49.90625,49.90625 a 9.0009,9.0009 0 0 0 0,0.0937 l 0.0625,8.5625 c 1.43688,-26.19257 23.30735,-47.15625 49.84375,-47.15625 27.45766,0 49.90625,22.44859 49.90625,49.90625 l 0.0937,38.03125 14.875,0 c 2.95334,3.1e-4 5.88042,1.22418 7.96875,3.3125 2.08832,2.08833 3.31219,5.01541 3.3125,7.96875 l 0,-11.40625 c -3.1e-4,-2.95334 -1.22418,-5.88042 -3.3125,-7.96875 -2.08833,-2.08832 -5.01541,-3.31219 -7.96875,-3.3125 l -14.875,0 -0.0937,-38.03125 c 0,-27.45766 -22.44859,-49.90625 -49.90625,-49.90625 z m -31.8125,58.9375 c -0.055,0.76222 -0.0923,1.53569 -0.0937,2.3125 l 0,0.0625 0.34375,38.03125 63.5625,0 -0.0312,-11.40625 -63.53125,0 -0.25,-29 z m -32.875,29 c -2.95854,-0.008 -5.90509,1.19214 -8,3.28125 -2.0949,2.08912 -3.3122,5.04145 -3.3125,8 l 0,11.40625 c 3e-4,-2.95855 1.2176,-5.91088 3.3125,-8 2.09491,-2.08911 5.04146,-3.28925 8,-3.28125 l 15.125,0 -0.0937,-11.40625 -15.03125,0 z"
       id="path4041"
       inkscape:connector-curvature="0" />
    <path
       style="font-size:medium;font-style:normal;font-variant:normal;font-weight:normal;font-stretch:normal;text-indent:0;text-align:start;text-decoration:none;line-height:normal;letter-spacing:normal;word-spacing:normal;text-transform:none;direction:ltr;block-progression:tb;writing-mode:lr-tb;text-anchor:start;baseline-shift:baseline;color:#000000;fill:#ffffff;fill-opacity:1;stroke:none;stroke-width:18;marker:none;visibility:visible;display:inline;overflow:visible;enable-background:accumulate;font-family:Sans;-inkscape-font-specification:Sans;filter:url(#filter4076)"
       d="m 263.65625,149.89761 c -17.70842,0 -31.87225,14.14387 -31.90625,31.84375 l 0,0.0625 0.0625,7.25 c 1.09299,-16.71104 14.83764,-29.75 31.84375,-29.75 17.72974,0 31.90625,14.17651 31.90625,31.90625 a 9.0009,9.0009 0 0 0 0,0.0312 l 0.0625,28.59375 0.0312,0 -0.0937,-38 a 9.0009,9.0009 0 0 1 0,-0.0312 c 0,-17.72974 -14.17651,-31.90625 -31.90625,-31.90625 z m -49.84375,38.78125 c -0.0423,0.83753 -0.0625,1.68366 -0.0625,2.53125 a 9.0009,9.0009 0 0 0 0,0.0937 l 0.25,28.53125 0.0937,0 -0.28125,-31.15625 z m -26.15625,165.3125 0,9.40625 c 3e-4,2.95855 1.2176,5.87963 3.3125,7.96875 2.09491,2.08911 5.04146,3.32038 8,3.3125 l 129.5625,0 c 2.95334,-3.1e-4 5.88042,-1.22418 7.96875,-3.3125 2.08832,-2.08833 3.31219,-5.01541 3.3125,-7.96875 l 0,-9.40625 c -3.1e-4,2.95334 -1.22418,5.88042 -3.3125,7.96875 -2.08833,2.08832 -5.01541,3.31219 -7.96875,3.3125 l -129.5625,0 c -2.95854,0.008 -5.90509,-1.19214 -8,-3.28125 -2.0949,-2.08912 -3.3122,-5.04145 -3.3125,-8 z"
       id="path4052"
       inkscape:connector-curvature="0" />
  </g>
</svg>
